<svg width="199.99999999999997" height="37.128914427762055" viewBox="0 0 199.99999999999997 37.128914427762055" class="css-1j8o68f">
<style>
        path {
            fill: #000;
        }
        @media (prefers-color-scheme: dark) {
            path {
                fill: #fff;
            }
        }
    </style>
<defs id="SvgjsDefs3932"></defs><g id="SvgjsG3933" featurekey="nameFeature-0" transform="matrix(2.0333468763617684,0,0,2.0333468763617684,2.236681370082876,-11.915412966961059)" fill="#000"><path d="M2.54 5.859999999999999 l0 0.64 l-0.56 0 l0 -0.64 l0.56 0 z M2.54 9.6 l0 11.78 c0 2.12 -0.8 2.74 -2.08 2.74 c-0.68 0 -1.22 -0.2 -1.56 -0.52 l0 -0.58 c0.42 0.3 0.96 0.54 1.62 0.54 c1 0 1.46 -0.68 1.46 -1.98 l0 -11.98 l0.56 0 z M9.7 9.42 c2.36 0 5.4 1.82 5.16 5.64 l-9.8 0 c0.14 3.1 2.54 4.6 4.84 4.6 c1.54 0 2.82 -0.48 3.64 -1.56 l0.42 0.32 c-0.96 1.28 -2.38 1.78 -4.04 1.78 c-2.72 0 -5.44 -1.82 -5.44 -5.4 c0 -3.56 2.86 -5.38 5.22 -5.38 z M9.7 9.96 c-1.98 0 -4.48 1.48 -4.64 4.56 l9.24 0 c-0.02 -3.08 -2.62 -4.56 -4.6 -4.56 z M21.46 9.42 c1.8 0 3.54 0.82 4.5 2.8 l0 -2.62 l0.56 0 l0 10.4 l-0.56 0 l0 -2.56 c-0.96 1.92 -2.7 2.76 -4.5 2.76 c-2.32 0 -5.28 -1.84 -5.28 -5.38 c0 -3.58 2.96 -5.4 5.28 -5.4 z M21.46 9.96 c-2.04 0 -4.7 1.56 -4.7 4.86 c0 3.28 2.66 4.84 4.7 4.84 c2.12 0 4.52 -1.52 4.52 -4.84 c0 -3.34 -2.4 -4.86 -4.52 -4.86 z M33.660000000000004 9.44 c2.08 0 4.02 1.3 4.02 4.46 l0 6.1 l-0.58 0 l0 -6.18 c0 -2.6 -1.56 -3.84 -3.46 -3.84 c-2.18 0 -3.78 1.96 -4.08 3.66 l0 6.36 l-0.56 0 l0 -10.4 l0.56 0 l0 2.84 c0.2 -0.88 1.62 -3 4.1 -3 z M48.32000000000001 9.6 l-4.62 10.4 l-0.32 0 l-4.62 -10.4 l0.6 0 l4.18 9.38 l4.18 -9.38 l0.6 0 z M54.040000000000006 9.42 c2.36 0 5.4 1.82 5.16 5.64 l-9.8 0 c0.14 3.1 2.54 4.6 4.84 4.6 c1.54 0 2.82 -0.48 3.64 -1.56 l0.42 0.32 c-0.96 1.28 -2.38 1.78 -4.04 1.78 c-2.72 0 -5.44 -1.82 -5.44 -5.4 c0 -3.56 2.86 -5.38 5.22 -5.38 z M54.040000000000006 9.96 c-1.98 0 -4.48 1.48 -4.64 4.56 l9.24 0 c-0.02 -3.08 -2.62 -4.56 -4.6 -4.56 z M65.82000000000001 9.44 c0.1 0 0.2 0 0.28 0.02 l0 0.52 c-0.1 -0.02 -0.2 -0.02 -0.3 -0.02 c-2.02 0 -3.7 1.46 -4.08 4.08 l0 5.96 l-0.56 0 l0 -10.4 l0.56 0 l0 3.08 c0.12 -1.54 1.76 -3.24 4.1 -3.24 z M72.86 11.6 c-0.46 -0.94 -1.32 -1.66 -2.6 -1.66 c-1.4 0 -2.28 0.86 -2.28 1.96 c0 0.94 0.48 1.68 1.94 2.2 l0.84 0.3 c1.92 0.66 3.04 1.38 3.04 3.02 c0 1.88 -1.8 2.78 -3.32 2.78 c-1.7 0 -3.14 -0.96 -3.48 -2.66 l0.5 -0.12 c0.38 1.52 1.66 2.24 2.98 2.24 c1.3 0 2.76 -0.7 2.76 -2.18 c0 -1.4 -0.94 -2.02 -2.42 -2.52 l-1.12 -0.4 c-1.64 -0.56 -2.28 -1.56 -2.28 -2.64 c0 -1.4 1.18 -2.5 2.86 -2.5 c1.44 0 2.52 0.8 3.04 1.98 z M78.98 10.14 l-2.18 0 l0 8.48 c0 0.72 0.34 0.98 0.82 0.98 c0.5 0 0.86 -0.16 1.3 -0.42 l0 0.56 c-0.44 0.24 -0.8 0.38 -1.46 0.38 c-0.6 0 -1.22 -0.42 -1.22 -1.28 l0 -8.7 l-1.42 0 l0 -0.54 l1.42 0 l0 -2.44 l0.56 0 l0 2.44 l2.18 0 l0 0.54 z M85.19999999999999 9.42 c2.36 0 5.4 1.82 5.16 5.64 l-9.8 0 c0.14 3.1 2.54 4.6 4.84 4.6 c1.54 0 2.82 -0.48 3.64 -1.56 l0.42 0.32 c-0.96 1.28 -2.38 1.78 -4.04 1.78 c-2.72 0 -5.44 -1.82 -5.44 -5.4 c0 -3.56 2.86 -5.38 5.22 -5.38 z M85.19999999999999 9.96 c-1.98 0 -4.48 1.48 -4.64 4.56 l9.24 0 c-0.02 -3.08 -2.62 -4.56 -4.6 -4.56 z M96.97999999999999 9.44 c0.1 0 0.2 0 0.28 0.02 l0 0.52 c-0.1 -0.02 -0.2 -0.02 -0.3 -0.02 c-2.02 0 -3.7 1.46 -4.08 4.08 l0 5.96 l-0.56 0 l0 -10.4 l0.56 0 l0 3.08 c0.12 -1.54 1.76 -3.24 4.1 -3.24 z"></path></g><g id="SvgjsG3934" featurekey="nameFeature-1" transform="matrix(1,0,0,1,0,47)" fill="#404040"><path d=""></path></g></svg>